HIERARCHY
ROOT Hips
{
  OFFSET 263.056 91.6644 -274.608
  CHANNELS 6 Xposition Yposition Zposition Zrotation Xrotation Yrotation
  JOINT LeftUpLeg
  {
    OFFSET 8.64259 1.95398 -2.38835
    CHANNELS 3 Zrotation Xrotation Yrotation
    JOINT LeftLeg
    {
      OFFSET 43.7702 0 0
      CHANNELS 3 Zrotation Xrotation Yrotation
      JOINT LeftFoot
      {
        OFFSET 40.6238 0 0
        CHANNELS 3 Zrotation Xrotation Yrotation
        JOINT LeftToeBase
        {
          OFFSET 12.7242 0 0
          CHANNELS 3 Zrotation Xrotation Yrotation
          End Site
          {
            OFFSET 0 0 0
          }
        }
      }
    }
  }
  JOINT RightUpLeg
  {
    OFFSET -8.2249 1.95398 -2.59336
    CHANNELS 3 Zrotation Xrotation Yrotation
    JOINT RightLeg
    {
      OFFSET 43.5653 0 0
      CHANNELS 3 Zrotation Xrotation Yrotation
      JOINT RightFoot
      {
        OFFSET 40.6238 0 0
        CHANNELS 3 Zrotation Xrotation Yrotation
        JOINT RightToeBase
        {
          OFFSET 12.7242 0 0
          CHANNELS 3 Zrotation Xrotation Yrotation
          End Site
          {
            OFFSET 0 0 0
          }
        }
      }
    }
  }
  JOINT Spine
  {
    OFFSET 0.165834 0.87714 6.61349
    CHANNELS 3 Zrotation Xrotation Yrotation
    JOINT Spine1
    {
      OFFSET 7.38963 1.71661e-005 0
      CHANNELS 3 Zrotation Xrotation Yrotation
      JOINT Spine2
      {
        OFFSET 11.9445 1.14441e-005 0
        CHANNELS 3 Zrotation Xrotation Yrotation
        JOINT Spine3
        {
          OFFSET 14.7254 4.19617e-005 0
          CHANNELS 3 Zrotation Xrotation Yrotation
          JOINT Spine4
          {
            OFFSET 10.9679 0 0
            CHANNELS 3 Zrotation Xrotation Yrotation
            JOINT RightShoulder
            {
              OFFSET 2.46616 -1.6653 3.69651
              CHANNELS 3 Zrotation Xrotation Yrotation
              JOINT RightArm
              {
                OFFSET 13.0012 0 0
                CHANNELS 3 Zrotation Xrotation Yrotation
                JOINT RightForeArm
                {
                  OFFSET 28.7848 1.52588e-005 0
                  CHANNELS 3 Zrotation Xrotation Yrotation
                  JOINT RightHand
                  {
                    OFFSET 26.5688 1.52588e-005 0
                    CHANNELS 3 Zrotation Xrotation Yrotation
                    End Site
                    {
                      OFFSET 0 0 0
                    }
                  }
                }
              }
            }
            JOINT LeftShoulder
            {
              OFFSET 2.38034 -1.29275 -3.7523
              CHANNELS 3 Zrotation Xrotation Yrotation
              JOINT LeftArm
              {
                OFFSET 16.3182 6.10352e-005 0
                CHANNELS 3 Zrotation Xrotation Yrotation
                JOINT LeftForeArm
                {
                  OFFSET 27.0901 0 0
                  CHANNELS 3 Zrotation Xrotation Yrotation
                  JOINT LeftHand
                  {
                    OFFSET 24.5451 1.52588e-005 0
                    CHANNELS 3 Zrotation Xrotation Yrotation
                    End Site
                    {
                      OFFSET 0 0 0
                    }
                  }
                }
              }
            }
            JOINT Neck
            {
              OFFSET 5.0226 -0.0266342 0
              CHANNELS 3 Zrotation Xrotation Yrotation
              JOINT Head
              {
                OFFSET 6.69364 2.86102e-005 0
                CHANNELS 3 Zrotation Xrotation Yrotation
                End Site
                {
                  OFFSET 0 0 0
                }
              }
            }
          }
        }
      }
    }
  }
}
MOTION
Frames:	14
Frame Time:	0.0416667
-3.54048 90.6101 29.9979 -80.6837 -3.94724 -95.0584 -174.858 39.3723 87.1369 -25.868 12.774 -1.89522 59.4129 0.893301 7.02502 51.7004 26.6679 4.65169 -179.095 -7.8756 90.9351 -28.5772 -28.0008 -7.96121 51.1552 3.45846 2.80536 36.2972 0.520395 29.8255 0.83185 7.55393 -88.826 11.7435 2.20555 2.10528 0.0728266 2.29609 2.00616 -22.4565 1.47111 2.67056 -2.44389 1.47113 2.67055 81.5263 -50.0583 -113.609 21.6126 -11.2962 5.46541 -21.9156 -14.2567 -60.7727 -11.486 -0.982108 4.78439 -100.659 -42.5399 60.0266 -34.5157 3.80045 13.4815 7.26279 9.08728 -33.6495 7.5108 0.436608 1.74755 10.5604 -6.91276 1.58142 -5.21458 -7.03497 -4.90858 
-13.4867 89.6669 32.6177 -81.3751 -1.9619 -93.9196 -176.16 38.9047 86.8824 -38.9841 13.2494 -0.321425 61.3777 4.50365 12.467 45.7854 16.2056 -13.5837 -177.82 -1.84897 91.9321 -43.4436 -23.4118 -8.20837 35.3012 8.86208 9.05541 28.2814 -0.843514 12.0011 0.706332 7.46417 -88.8346 11.9234 1.95356 2.11395 0.252329 2.0447 2.02594 -22.2746 1.22818 2.6031 -2.26193 1.22815 2.60309 80.8462 -49.8556 -114.695 24.112 -10.1913 8.24516 -16.2894 -13.1009 -55.9924 -13.1662 -1.10583 4.86955 -100.456 -41.7592 60.0003 -31.6179 4.16238 11.2212 7.49049 10.2197 -33.3372 7.66061 0.453654 1.82362 10.636 -5.70657 -0.29977 -5.56841 -5.42753 -4.05435 
-22.7714 91.0682 35.001 -83.8324 -0.148989 -94.6211 -176.436 28.871 84.831 -37.8329 10.1028 0.471101 64.7779 10.0632 14.8825 41.9876 12.6453 -16.0826 -179.523 13.6807 91.3835 -62.6507 -3.19321 -5.84179 46.8548 2.65695 2.46441 37.8044 0.709752 5.55825 0.388908 7.71665 -88.9593 11.4291 1.25994 1.94701 -0.242555 1.34437 1.88968 -22.7679 0.6167 2.23552 -2.75526 0.616656 2.23551 80.9081 -49.9436 -114.569 23.9943 -9.05351 9.33149 -15.6854 -15.8165 -51.3796 -9.04696 -0.854927 5.3994 -101.986 -41.8289 57.6485 -27.7204 5.22335 7.26729 6.81129 8.18513 -36.3111 9.82252 0.54416 1.55191 9.74189 -3.29014 0.742896 -4.07486 -3.36127 -3.06109 
-32.1855 93.8944 37.317 -84.36 1.14484 -92.4366 -174.503 16.548 86.3158 -27.1678 11.7594 -0.582596 63.0752 10.4372 16.3311 45.8176 16.1613 -14.0196 178.353 25.6046 91.711 -57.4437 7.18344 -2.26571 61.9385 -2.43845 -1.41062 42.5939 1.03941 2.62495 0.118269 7.69895 -89.3947 11.4706 0.518122 1.15239 -0.200791 0.568322 1.12847 -22.7317 0.147853 1.25481 -2.71908 0.147866 1.25481 80.7976 -50.5831 -114.488 23.9556 -8.5128 11.7655 -12.6663 -16.4542 -45.611 -9.36306 -0.837821 4.81497 -101.531 -41.3124 58.1178 -25.1924 3.82406 3.12503 8.44529 6.93835 -42.5998 11.1732 0.617007 1.60054 7.23149 -0.752502 1.56284 -3.59798 -1.04792 -1.94849 
-41.7631 95.1628 38.5699 -84.8844 0.517826 -91.8882 -173.796 5.18587 86.3702 -17.9557 13.9536 -0.744497 61.4551 9.00923 15.5257 48.3231 18.9429 -10.9346 178.055 30.1151 91.0143 -35.0947 9.9797 1.07178 65.6488 -2.73187 -1.52419 42.7883 0.882352 0.422565 -0.282232 7.67277 -89.6162 11.5297 -0.381812 0.804343 -0.141468 -0.346051 0.820353 -22.6757 -0.605918 0.652408 -2.66307 -0.605874 0.652418 80.969 -51.8441 -113.761 23.5561 -8.29127 16.0308 -10.7509 -15.5774 -43.8204 -5.25302 -0.521936 4.05512 -101.218 -40.652 58.3042 -22.0288 2.51721 0.231173 9.61756 5.20251 -49.9334 11.8748 0.604408 1.18461 6.24493 0.777217 1.45416 -3.57463 0.483241 -0.532631 
-52.0109 94.2384 38.8363 -86.052 -1.63858 -92.6303 -172.657 -2.87744 88.1897 -16.1767 17.8845 -1.03215 62.8499 8.52009 13.062 47.1868 19.3038 -4.33199 -178.31 28.4032 88.6352 -6.50667 7.65389 -1.04324 61.841 -1.70409 -0.941918 50.1242 1.76967 3.637 -0.715394 7.77566 -89.5867 11.3275 -1.23097 0.945847 -0.343299 -1.18813 0.999098 -22.882 -1.45827 0.532129 -2.86939 -1.45831 0.532118 80.1237 -54.2456 -114.089 22.2775 -8.44382 19.4477 -9.62195 -15.494 -41.9709 -3.25908 -0.383767 3.6053 -100.703 -39.3054 58.4949 -18.6099 1.46172 -3.20406 10.9949 4.5854 -55.5012 11.6307 0.584566 1.12299 6.29959 1.22437 0.307262 -3.33493 1.14232 0.325528 
-63.3424 92.0545 38.6333 -88.6882 -5.44168 -92.8372 -172.062 -9.25941 91.3625 -21.1309 26.0657 0.395025 58.5707 4.36964 12.0717 59.7294 31.6758 -4.4602 -178.547 29.8859 87.4723 -8.97473 8.88753 -1.18753 63.6409 -1.78775 -0.970073 51.688 1.93963 3.62504 -1.25691 7.92162 -89.6648 11.0447 -2.34652 0.89403 -0.624518 -2.30494 0.996475 -23.1767 -2.50669 0.14706 -3.16409 -2.50673 0.147041 80.5174 -54.3548 -113.492 23.3347 -8.03853 22.0383 -10.1985 -16.4371 -40.9856 -0.512163 -0.228909 3.76423 -100.346 -38.4875 58.6857 -17.9371 0.66571 -4.17275 10.7378 3.73134 -57.3108 12.4599 0.649047 1.30806 5.77278 1.71287 0.434982 -3.69491 1.59452 1.06401 
-76.5303 90.3576 38.4166 -90.4184 -6.80322 -89.2263 -172.192 -9.42389 96.8878 -33.5086 27.7576 2.76977 46.5511 -8.44164 0.523487 52.8416 29.4257 8.38144 179.327 32.1613 91.0127 -28.9279 9.72398 1.01297 59.8791 -0.444902 -0.137163 43.6033 1.21115 4.3901 -1.33877 7.88043 -90.231 11.1141 -2.77204 -0.191748 -0.553788 -2.77781 -0.0694703 -23.1105 -2.58617 -1.01655 -3.09789 -2.58613 -1.01654 80.7125 -53.8611 -113.394 23.6295 -7.08728 22.4636 -8.63703 -17.2706 -36.3073 0.231083 -0.173948 4.41491 -101.838 -40.4232 57.2225 -20.0612 1.24887 -1.29667 8.93185 3.20001 -53.4567 13.1398 0.654857 1.10012 6.45339 2.64696 2.53733 -6.04726 2.06253 1.77778 
-88.3246 90.3316 37.7843 -92.4421 -3.81662 -87.6361 -173.936 0.339854 98.4731 -54.1608 20.4119 2.64371 38.4399 -14.4955 -2.72569 36.667 9.31927 11.6799 178.051 29.3961 94.8576 -41.5505 7.35879 1.83007 64.6828 -1.27474 -0.636869 35.4437 0.358063 8.18188 -0.750776 7.96611 -90.4316 10.9348 -1.69431 -0.696789 -0.735261 -1.72332 -0.621532 -23.2751 -1.40659 -1.17384 -3.26248 -1.40658 -1.17383 80.1295 -52.3218 -114.799 25.1396 -6.13325 19.5596 -8.13564 -16.9176 -35.3923 0.823429 -0.0891517 6.27856 -102.962 -41.7517 56.1036 -23.2509 4.27996 0.067236 6.89638 4.81675 -43.8426 13.1604 0.719816 1.57449 6.23145 1.91982 3.1894 -6.33824 1.23823 1.20911 
-99.4133 92.8281 36.6465 -92.6365 -0.287344 -89.6926 -174.058 12.6012 94.1578 -60.8902 18.3937 0.560195 45.2986 -9.06601 2.8924 42.1727 16.0959 7.84672 179.737 20.2875 95.3826 -38.5978 6.43763 -0.965314 68.8756 -2.19775 -1.15355 32.8752 0.00228361 9.27068 -0.248213 7.85546 -90.0686 11.1628 -0.525907 -0.0851275 -0.507999 -0.529132 -0.0618974 -23.0439 -0.476012 -0.239251 -3.03122 -0.476006 -0.23925 80.332 -51.4784 -114.827 25.6393 -7.57196 15.8127 -11.3134 -15.7371 -43.926 -3.28651 -0.422174 5.69905 -103.068 -42.4143 56.2562 -27.7015 5.87988 3.46795 5.94786 7.98482 -35.2157 13.7063 1.0336 3.57635 4.66575 1.72102 2.77092 -6.58434 1.16772 1.00662 
-110.097 95.2424 35.7408 -92.4109 2.42741 -90.6695 -173.275 19.6851 90.7864 -45.6588 15.615 -0.939616 51.6962 -3.5425 5.7049 46.7228 22.2807 9.79852 179.833 9.10466 94.7375 -29.965 3.97071 -1.72877 68.5936 -2.1976 -1.1486 36.6239 0.533142 8.3825 0.126866 7.74599 -89.8795 11.3813 0.308665 0.209023 -0.289639 0.317578 0.195226 -22.8248 0.231591 0.292126 -2.81216 0.23159 0.292127 81.4936 -49.7909 -113.756 25.6601 -8.309 12.9789 -14.7191 -11.724 -56.2122 -7.12473 -0.608789 3.42405 -102.525 -42.8025 57.2702 -32.1667 7.34092 7.79634 4.04805 9.92898 -28.2403 11.8832 1.00628 4.34219 3.7468 1.53265 3.24732 -5.83583 0.947931 0.154686 
-120.207 95.6596 35.618 -91.2494 6.55767 -90.4205 -173.84 21.2903 90.0122 -16.1341 9.82323 -0.944327 57.0728 1.15805 7.58002 48.384 25.5568 13.3707 179.167 0.748646 94.362 -24.1923 -0.61152 -1.84713 68.7244 -2.76712 -1.44721 39.7964 0.973171 8.56394 0.531385 7.63225 -89.8733 11.609 1.11646 0.136977 -0.0614562 1.12141 0.0876958 -22.5999 1.02366 0.466223 -2.58727 1.02365 0.466213 82.6976 -47.6096 -112.759 23.9017 -9.54311 7.95557 -16.2459 -7.50505 -65.8708 -8.54926 -0.674948 3.34701 -101.956 -43.3398 58.3853 -35.6015 8.09252 12.6001 3.70314 12.4755 -25.9736 7.97012 0.592248 3.17203 5.13192 2.05393 4.44314 -5.93366 1.22351 -0.849927 
-130.608 94.0962 35.9355 -90.6442 10.7081 -89.0612 -174.571 24.7724 91.2053 -3.17981 8.54599 -0.484326 61.9717 4.94017 11.3388 52.1568 29.4962 10.7402 178.602 -4.84558 93.4429 -24.3298 -4.9118 -2.63526 72.0282 -4.76641 -2.42266 42.5807 1.34382 8.82349 0.916658 7.58406 -89.9616 11.7073 1.84127 -0.116696 0.0375909 1.83438 -0.197659 -22.5075 1.79122 0.442263 -2.49489 1.79118 0.442258 82.7103 -45.5811 -113.513 21.9994 -8.8074 3.74289 -18.8324 -6.23695 -70.8181 -9.2547 -0.754051 3.82749 -101.411 -43.6498 59.3545 -38.1467 8.35475 15.6088 3.49075 14.6871 -24.5433 6.04735 0.485326 3.45367 6.20059 2.73063 4.79987 -6.49193 1.79406 -1.28829 
-142.504 92.007 35.9421 -92.1884 13.0393 -89.7486 -173.762 23.7348 89.5294 -9.80496 6.58045 -1.68013 58.5502 2.13073 5.85972 49.0846 24.8085 8.38148 178.117 -7.32595 90.4508 -35.2533 -9.21617 -5.45749 64.5695 -2.12025 -1.19273 56.7736 3.79261 11.0679 1.14707 7.6079 -89.7066 11.6566 2.41917 0.332607 -0.0121304 2.43146 0.22574 -22.5626 2.20732 1.04463 -2.54998 2.20734 1.04463 82.088 -46.4508 -114.141 21.6311 -7.45503 4.3574 -18.4217 -7.02588 -68.9329 -12.1688 -0.991307 4.38912 -100.383 -44.0079 61.0814 -38.4922 7.76424 16.3917 2.86006 14.8786 -22.098 6.15828 0.538688 4.05136 5.57569 2.70487 3.01712 -7.1716 2.13111 -1.06041 
